<svg aria-hidden="true" style="position: absolute; width: 0; height: 0; overflow: hidden;" version="1.1" xmlns="http://www.w3.org/2000/svg" xmlns:xlink="http://www.w3.org/1999/xlink">
<defs>
<symbol id="icon-facebook_r" viewBox="0 0 32 32">
<path d="M16.016 0.252c-8.707 0-15.765 7.058-15.765 15.765s7.058 15.765 15.765 15.765 15.765-7.058 15.765-15.765c0-8.707-7.058-15.765-15.765-15.765zM19.751 11.146h-2.37c-0.281 0-0.593 0.37-0.593 0.86v1.711h2.964l-0.448 2.44h-2.516v7.326h-2.797v-7.326h-2.537v-2.44h2.537v-1.435c0-2.059 1.429-3.733 3.389-3.733h2.37v2.596z"></path>
</symbol>
<symbol id="icon-inst_r" viewBox="0 0 32 32">
<path d="M20.926 16.016c0 1.307-0.519 2.56-1.443 3.483s-2.177 1.443-3.484 1.443-2.559-0.519-3.484-1.443c-0.924-0.924-1.443-2.177-1.443-3.483 0-0.281 0.030-0.555 0.081-0.821h-1.723v6.564c0 0.456 0.369 0.826 0.826 0.826h11.487c0.218-0 0.429-0.088 0.583-0.243s0.241-0.365 0.241-0.583v-6.564h-1.723c0.051 0.266 0.080 0.54 0.080 0.821zM16 19.301c0.431-0 0.859-0.085 1.257-0.25s0.76-0.407 1.066-0.712c0.305-0.305 0.547-0.667 0.712-1.066s0.25-0.826 0.25-1.257-0.085-0.859-0.25-1.257c-0.165-0.399-0.407-0.761-0.713-1.066s-0.667-0.547-1.066-0.712c-0.398-0.165-0.826-0.25-1.257-0.25-0.871 0-1.707 0.347-2.323 0.963s-0.961 1.452-0.961 2.323c0 0.871 0.347 1.707 0.963 2.323s1.452 0.962 2.323 0.962zM19.941 12.568h1.969c0.131 0 0.256-0.052 0.349-0.144s0.145-0.218 0.145-0.348v-1.969c0-0.131-0.052-0.257-0.145-0.35s-0.218-0.145-0.35-0.145h-1.969c-0.131 0-0.257 0.052-0.35 0.145s-0.145 0.218-0.145 0.35v1.969c0.002 0.271 0.223 0.493 0.494 0.493zM16 0.252c-4.181 0-8.191 1.661-11.147 4.617s-4.618 6.966-4.618 11.147c0 4.181 1.661 8.191 4.618 11.147s6.966 4.617 11.147 4.617c2.070 0 4.12-0.408 6.033-1.2s3.65-1.953 5.114-3.417c1.464-1.464 2.626-3.202 3.417-5.114s1.2-3.963 1.2-6.033c0-2.070-0.408-4.12-1.2-6.033s-1.953-3.651-3.417-5.114c-1.463-1.464-3.201-2.625-5.114-3.417s-3.963-1.2-6.033-1.2zM24.211 22.403c0 1.003-0.821 1.824-1.824 1.824h-12.773c-1.003 0-1.824-0.821-1.824-1.824v-12.773c0-1.003 0.821-1.824 1.824-1.824h12.773c1.003 0 1.824 0.821 1.824 1.824v12.773z"></path>
</symbol>
<symbol id="icon-pin_r" viewBox="0 0 32 32">
<path  d="M15.984 0.252c-8.707 0-15.765 7.058-15.765 15.765s7.058 15.765 15.765 15.765 15.765-7.058 15.765-15.765c0-8.707-7.058-15.765-15.765-15.765zM17.062 19.752c-1.012-0.077-1.435-0.578-2.227-1.058-0.435 2.284-0.967 4.475-2.544 5.619-0.488-3.455 0.713-6.046 1.271-8.8-0.951-1.601 0.113-4.821 2.12-4.030 2.468 0.979-2.138 5.953 0.954 6.575 3.228 0.647 4.547-5.603 2.545-7.633-2.893-2.934-8.419-0.067-7.739 4.133 0.164 1.026 1.227 1.338 0.424 2.756-1.851-0.411-2.404-1.87-2.332-3.816 0.113-3.186 2.862-5.417 5.618-5.725 3.486-0.388 6.757 1.279 7.211 4.56 0.507 3.701-1.575 7.707-5.301 7.418z"></path>
</symbol>
<symbol id="icon-twitter_r" viewBox="0 0 32 32">
<path  d="M15.907 0.252c-8.707 0-15.765 7.058-15.765 15.765s7.058 15.765 15.765 15.765 15.765-7.058 15.765-15.765c0-8.707-7.058-15.765-15.765-15.765zM22.32 13.166c0.007 0.135 0.008 0.269 0.008 0.401 0 4.105-3.122 8.836-8.833 8.836-1.688 0.003-3.34-0.482-4.759-1.396 0.241 0.030 0.489 0.041 0.741 0.041 1.455 0 2.793-0.494 3.856-1.329-0.647-0.013-1.275-0.227-1.795-0.613s-0.906-0.925-1.105-1.541c0.465 0.088 0.944 0.070 1.401-0.054-0.703-0.142-1.335-0.523-1.789-1.078s-0.702-1.25-0.702-1.967v-0.038c0.419 0.232 0.898 0.373 1.407 0.389-0.659-0.439-1.125-1.112-1.304-1.883s-0.056-1.581 0.343-2.265c0.78 0.959 1.753 1.744 2.855 2.303s2.31 0.881 3.544 0.944c-0.157-0.666-0.089-1.366 0.192-1.989s0.761-1.137 1.365-1.46c0.603-0.323 1.297-0.438 1.972-0.326s1.295 0.443 1.762 0.943c0.695-0.137 1.361-0.392 1.971-0.754-0.232 0.719-0.717 1.33-1.365 1.719 0.616-0.074 1.217-0.24 1.783-0.491-0.416 0.624-0.941 1.168-1.549 1.608z"></path>
</symbol>
<symbol id="icon-yout_r" viewBox="0 0 32 32">
<path  d="M18.725 15.742l-3.688-1.721c-0.322-0.149-0.586 0.018-0.586 0.374v3.242c0 0.356 0.264 0.524 0.586 0.374l3.687-1.721c0.323-0.151 0.323-0.397 0.002-0.549zM16.093 0.252c-8.707 0-15.765 7.058-15.765 15.765s7.058 15.765 15.765 15.765 15.765-7.058 15.765-15.765c0-8.707-7.058-15.765-15.765-15.765zM16.093 22.421c-8.069 0-8.211-0.727-8.211-6.404s0.141-6.404 8.211-6.404 8.211 0.728 8.211 6.404c0 5.677-0.141 6.404-8.211 6.404z"></path>
</symbol>
</defs>
</svg>
